# AST/ASF file generated using VICON BodyLanguage
# -----------------------------------------------
:version 1.10
:name VICON
:units
  mass 1.0
  length 0.45
  angle deg
:documentation
   .ast/.asf automatically generated from VICON data using
   VICON BodyBuilder and BodyLanguage model FoxedUp or BRILLIANT.MOD
:root
   order TX TY TZ RX RY RZ
   axis XYZ
   position 0 0 0  
   orientation 0 0 0 
:bonedata
  begin
     id 1 
     name lhipjoint
     direction 0.62366 -0.717238 0.310833 
     length 2.53602 
     axis 0 0 0  XYZ
  end
  begin
     id 2 
     name lfemur
     direction 0.34202 -0.939693 0  
     length 7.40817  
     axis 0 0 20  XYZ
    dof rx ry rz
    limits (-160.0 20.0)
           (-70.0 70.0)
           (-60.0 70.0)
  end
  begin
     id 3 
     name ltibia
     direction 0.34202 -0.939693 0   
     length 7.7045   
     axis 0 0 20   XYZ
    dof rx
    limits (-10.0 170.0)
  end
  begin
     id 4 
     name lfoot
     direction 0.0673888 -0.185149 0.980397   
     length 2.09456   
     axis -90 7.62852e-016 20   XYZ
    dof rx rz
    limits (-45.0 90.0)
           (-70.0 20.0)
  end
  begin
     id 5 
     name ltoes
     direction 1.53575e-011 -4.21994e-011 1   
     length 1.05543   
     axis -90 7.62852e-016 20   XYZ
    dof rx
    limits (-90.0 20.0)
  end
  begin
     id 6 
     name rhipjoint
     direction -0.489018 -0.800347 0.346851   
     length 2.27268  
     axis 0 0 0  XYZ 
  end
  begin
     id 7 
     name rfemur
     direction -0.34202 -0.939693 0   
     length 7.55487   
     axis 0 0 -20   XYZ
    dof rx ry rz
    limits (-160.0 20.0)
           (-70.0 70.0)
           (-70.0 60.0)
  end
  begin
     id 8 
     name rtibia
     direction -0.34202 -0.939693 0   
     length 7.78969   
     axis 0 0 -20   XYZ
    dof rx
    limits (-10.0 170.0)
 end
 begin
     id 9 
     name rfoot
     direction -0.0859318 -0.236096 0.967923   
     length 2.19143  
     axis -90 -7.62852e-016 -20   XYZ
    dof rx rz
    limits (-45.0 90.0)
           (-20.0 70.0)
  end
  begin
     id 10 
     name rtoes
     direction -1.53538e-011 -4.21989e-011 1   
     length 1.09845   
     axis -90 -7.62852e-016 -20   XYZ
    dof rx
    limits (-90.0 20.0)
  end
  begin
     id 11 
     name lowerback
     direction -0.00762546 0.998978 -0.0445553   
     length 1.98161   
     axis 0 0 0   XYZ
    dof rx ry rz
    limits (-20.0 45.0)
           (-30.0 30.0)
           (-30.0 30.0)
  end
  begin
     id 12 
     name upperback
     direction 0.0422361 0.998867 -0.0219156   
     length 1.97558   
     axis 0 0 0   XYZ
    dof rx ry rz
    limits (-20.0 45.0)
           (-30.0 30.0)
           (-30.0 30.0)
  end
  begin
     id 13 
     name thorax
     direction 0.0442465 0.999021 7.47603e-005   
     length 1.97799   
     axis 0 0 0   XYZ
    dof rx ry rz
    limits (-20.0 45.0)
           (-30.0 30.0)
           (-30.0 30.0)
  end
  begin
     id 14 
     name lowerneck
     direction 0.00312169 0.984641 0.174564   
     length 1.78995   
     axis 0 0 0   XYZ
    dof rx ry rz
    limits (-20.0 45.0)
           (-30.0 30.0)
           (-30.0 30.0)
  end
  begin
     id 15 
     name upperneck
     direction -0.0383028 0.985255 -0.166749   
     length 1.83053   
     axis 0 0 0   XYZ
    dof rx ry rz
    limits (-20.0 45.0)
           (-30.0 30.0)
           (-30.0 30.0)
  end
  begin
     id 16
     name head
     direction -0.0129546 0.997059 -0.0755386  
     length 1.84088  
     axis 0 0 0   XYZ
    dof rx ry rz
    limits (-20.0 45.0)
           (-30.0 30.0)
           (-30.0 30.0)
  end
  begin
     id 17 
     name lclavicle
     direction 0.912857 0.370519 -0.171488  
     length 3.51279  
     axis 0 0 0   XYZ
    dof ry rz
    limits (-20.0 10.0)
           (0.0 20.0)
  end
  begin
     id 18 
     name lhumerus
     direction 1 -4.48962e-011 3.64361e-027   
     length 4.95663   
     axis 180 -30 -90   XYZ
    dof rx ry rz
    limits (-60.0 90.0)
           (-90.0 90.0)
           (-90.0 90.0)
  end
  begin
     id 19
     name lradius
     direction 1 -4.48974e-011 5.97202e-027   
     length 3.38177   
     axis 180 -30 -90   XYZ
    dof rx
    limits (-10.0 170.0)
  end
  begin
     id 20
     name lwrist
     direction 1 -4.4896e-011 9.83288e-027   
     length 1.69088   
     axis -9.31221e-015 90 90   XYZ
    dof ry
    limits (-180.0 0.0)
 end
  begin
     id 21 
     name lhand
     direction 1 -4.4902e-011 1.96551e-026   
     length 0.662909   
     axis -1.25475e-014 90 90   XYZ
    dof rx rz
    limits (-90.0 90.0)
           (-45.0 45.0)
  end
  begin
     id 22 
     name lfingers
     direction 1 -4.48971e-011 3.93277e-026   
     length 0.534454   
     axis -2.50945e-014 90 90   XYZ
    dof rx
    limits (0.0 90.0)
  end
  begin
     id 23
     name lthumb
     direction 0.707107 -6.34933e-011 0.707107   
     length 0.767373   
     axis -90 45 -4.80359e-014   XYZ
    dof rx rz
    limits (-45.0 45.0)
           (-45.0 45.0)
  end
  begin
     id 24 
     name rclavicle
     direction -0.900919 0.395364 -0.178976   
     length 3.40627  
     axis 0 0 0   XYZ 
    dof ry rz
    limits (-10.0 20.0)
           (-20.0 0.0)
  end
  begin
     id 25 
     name rhumerus
     direction -1 -4.48969e-011 1.03875e-027  
     length 5.08365   
     axis 180 30 90   XYZ
    dof rx ry rz
    limits (-90.0 60.0)
           (-90.0 90.0)
           (-90.0 90.0)
  end
  begin
     id 26 
     name rradius
     direction -1 -4.48951e-011 5.02733e-027   
     length 3.35984   
     axis 180 30 90   XYZ
    dof rx
    limits (-10.0 170.0)
  end
  begin
     id 27 
     name rwrist
     direction -1 -4.49011e-011 9.82828e-027   
     length 1.67992   
     axis -9.31221e-015 -90 -90   XYZ
    dof ry
    limits (-180.0 0.0)
  end
  begin
     id 28
     name rhand
     direction -1 -4.48894e-011 1.96774e-026   
     length 0.820764   
     axis -1.25475e-014 -90 -90   XYZ
    dof rx rz
    limits (-90.0 90.0)
           (-45.0 45.0)
  end
  begin
     id 29
     name rfingers
     direction -1 -4.49095e-011 3.92833e-026   
     length 0.661721   
     axis -2.50945e-014 -90 -90   XYZ
    dof rx
    limits (0.0 90.0)
  end
  begin
     id 30
     name rthumb
     direction -0.707107 -6.34881e-011 0.707107   
     length 0.950103   
     axis -90 -45 4.80359e-014   XYZ
    dof rx rz
    limits (-45.0 45.0)
           (-45.0 45.0)
  end
:hierarchy
  begin
    root lhipjoint rhipjoint lowerback
    lhipjoint lfemur
    lfemur ltibia
    ltibia lfoot
    lfoot ltoes
    rhipjoint rfemur
    rfemur rtibia
    rtibia rfoot
    rfoot rtoes
    lowerback upperback
    upperback thorax
    thorax lowerneck lclavicle rclavicle
    lowerneck upperneck
    upperneck head
    lclavicle lhumerus
    lhumerus lradius
    lradius lwrist
    lwrist lhand lthumb
    lhand lfingers
    rclavicle rhumerus
    rhumerus rradius
    rradius rwrist
    rwrist rhand rthumb
    rhand rfingers
  end

#!OML:ASF I:\golf\golf\golf 2\Subject 1\2002-09-07\Subject1.ASF
:FULLY-SPECIFIED
:DEGREES
124
root -6.76937 17.5379 1.4599 -8.75271 63.1178 -22.9146
lowerback 2.88556 -3.95443 -11.4341
upperback 4.34673 -5.28353 0.116333
thorax 4.03279 -3.01284 6.42247
lowerneck -9.27192 13.1751 4.00871
upperneck 27.2874 22.1991 -11.4662
head 12.406 9.25837 -1.68045
rclavicle -6.83819e-014 -6.36111e-015
rhumerus -11.6136 -4.95226 -94.2504
rradius 78.4937
rwrist -50.9539
rhand -57.5309 23.6049
rfingers 7.12502
rthumb -29.7983 -4.01872
lclavicle -6.83819e-014 -6.36111e-015
lhumerus 69.4827 -67.2494 41.7253
lradius 25.3635
lwrist 0.860205
lhand -16.2399 16.1752
lfingers 7.12502
lthumb -170.031 225.919
rfemur -34.8481 0.909697 28.899
rtibia 37.8777
rfoot -10.5606 16.8598
rtoes 18.9739
lfemur -12.8836 12.5235 4.45588
ltibia 26.0742
lfoot -12.762 15.875
ltoes -18.108
125
root -6.76519 17.5323 1.48812 -8.64945 62.8165 -22.7729
lowerback 3.00862 -4.28114 -11.3662
upperback 4.29763 -5.73141 -0.0324517
thorax 3.97615 -3.22374 6.21887
lowerneck -8.9818 13.5416 4.17966
upperneck 26.8079 22.6768 -11.752
head 12.2672 9.4905 -1.74896
rclavicle -8.74653e-015 -3.81667e-014
rhumerus -11.1306 -5.21696 -94.1501
rradius 79.7855
rwrist -49.966
rhand -57.6216 26.1496
rfingers 7.12502
rthumb -29.8848 -1.45848
lclavicle -8.74653e-015 -3.81667e-014
lhumerus 69.8371 -66.5144 42.1693
lradius 25.4731
lwrist 0.44484
lhand -16.963 15.1217
lfingers 7.12502
lthumb -170.729 224.898
rfemur -34.8256 0.726958 29.1183
rtibia 37.9922
rfoot -10.4488 17.3562
rtoes 19.9486
lfemur -12.5343 12.0455 4.59
ltibia 25.9552
lfoot -12.8927 16.4515
ltoes -17.3899
126
root -6.76447 17.5249 1.52413 -8.32606 62.4785 -22.5254
lowerback 2.99733 -4.57392 -11.4312
upperback 4.18298 -6.12358 -0.178688
thorax 3.92787 -3.40955 6.08615
lowerneck -8.93334 13.8981 4.27624
upperneck 26.7258 23.148 -11.727
head 12.2812 9.70922 -1.67636
rclavicle -3.97569e-014 0
rhumerus -10.5906 -5.51663 -93.7998
rradius 81.051
rwrist -48.0678
rhand -58.5377 26.0309
rfingers 7.12502
rthumb -30.7587 -1.41627
lclavicle -3.97569e-014 0
lhumerus 69.225 -65.805 43.7617
lradius 25.469
lwrist -0.725913
lhand -17.3538 13.9363
lfingers 7.12502
lthumb -171.106 223.729
rfemur -34.939 0.768558 29.2764
rtibia 38.1375
rfoot -10.4896 17.6931
rtoes 20.1523
lfemur -12.3267 11.7601 4.67521
ltibia 25.888
lfoot -12.937 16.9698
ltoes -16.9502
127
root -6.76371 17.5177 1.56203 -7.96964 62.0945 -22.1965
lowerback 3.03062 -4.82132 -11.6262
upperback 4.10471 -6.46203 -0.245062
thorax 3.9087 -3.57814 6.11247
lowerneck -8.93154 14.2217 4.276
upperneck 26.5069 23.5948 -11.8243
head 12.2545 9.90185 -1.63448
rclavicle 5.48646e-014 9.54166e-015
rhumerus -9.89828 -5.81323 -93.3267
rradius 82.2311
rwrist -45.8137
rhand -59.2416 25.5013
rfingers 7.12502
rthumb -31.4296 -1.81742
lclavicle 5.48646e-014 9.54166e-015
lhumerus 68.5086 -64.9839 45.6788
lradius 25.3922
lwrist -2.27336
lhand -17.4767 12.5808
lfingers 7.12502
lthumb -171.225 222.378
rfemur -35.0125 0.859155 29.4144
rtibia 38.3032
rfoot -10.6816 17.9911
rtoes 19.8161
lfemur -12.0959 11.7005 4.72676
ltibia 25.8676
lfoot -12.822 17.4195
ltoes -17.5039
128
root -6.76308 17.5097 1.59499 -7.57224 61.7346 -21.8381
lowerback 3.06958 -5.07592 -11.8568
upperback 4.0636 -6.81135 -0.232982
thorax 3.94493 -3.75998 6.23722
lowerneck -9.22819 14.5504 4.06188
upperneck 26.4792 24.0948 -11.8033
head 12.3231 10.0817 -1.48626
rclavicle 1.59028e-014 -9.54166e-015
rhumerus -9.20192 -6.19703 -93.0053
rradius 83.5781
rwrist -44.1277
rhand -59.1976 26.9302
rfingers 7.12502
rthumb -31.3876 -0.396637
lclavicle 1.59028e-014 -9.54166e-015
lhumerus 69.5438 -64.1157 45.7593
lradius 25.4573
lwrist -2.88677
lhand -17.8571 11.4468
lfingers 7.12502
lthumb -171.592 221.259
rfemur -35.1329 0.887456 29.5224
rtibia 38.4834
rfoot -10.6586 18.3574
rtoes 20.1847
lfemur -11.911 11.6576 4.73545
ltibia 25.8772
lfoot -12.844 17.8167
ltoes -17.9275
